<?xml version="1.0" encoding="utf-8"?>
<!-- Generator: Adobe Illustrator 16.0.4, SVG Export Plug-In . SVG Version: 6.00 Build 0)  -->
<!DOCTYPE svg PUBLIC "-//W3C//DTD SVG 1.1//EN" "http://www.w3.org/Graphics/SVG/1.1/DTD/svg11.dtd">
<svg version="1.1" id="Layer_1" xmlns="http://www.w3.org/2000/svg" xmlns:xlink="http://www.w3.org/1999/xlink" x="0px" y="0px"
	 width="304px" height="45px" viewBox="0 0 304 45" enable-background="new 0 0 304 45" xml:space="preserve">
<title>Coz-logo</title>
<desc>Created with Sketch.</desc>
<g id="Page-1">
	<g id="CoZ_CompetitionPage_Registration_S4" transform="translate(-568.000000, -74.000000)">
		<g id="Coz-logo" transform="translate(568.000000, 74.000000)">
			<g id="CoZ_Logo">
				<path id="Fill-1" fill="#212146" d="M73.758,16.563c-0.314,0-0.577,0.26-0.577,0.573v11.979c0,0.312,0.263,0.572,0.577,0.572
					H89.19V32.5H73.758c-1.889,0-3.411-1.51-3.411-3.385V17.136c0-1.875,1.522-3.386,3.411-3.386H89.19v2.813H73.758z"/>
				<polygon id="Fill-3" fill="#212146" points="95.471,15.704 97.983,13.75 97.983,32.5 95.471,32.5 				"/>
				<polygon id="Fill-5" fill="#212146" points="123.107,13.75 123.107,16.563 115.099,16.563 115.099,32.5 112.273,32.5 
					112.273,16.563 104.265,16.563 104.265,13.75 				"/>
				<polygon id="Fill-7" fill="#212146" points="146.975,13.75 138.872,25.469 138.872,32.5 136.236,32.5 136.236,25.469 
					128.132,13.75 131.232,13.75 137.553,22.292 143.851,13.75 				"/>
				<path id="Fill-9" fill="#212146" d="M181.26,29.688c0.312,0,0.575-0.26,0.575-0.573V17.135c0-0.313-0.263-0.572-0.575-0.572
					h-12.039c-0.314,0-0.576,0.259-0.576,0.572v11.979c0,0.313,0.262,0.573,0.576,0.573H181.26z M181.26,13.75
					c1.884,0,3.401,1.51,3.401,3.385v11.979c0,1.876-1.518,3.386-3.401,3.386h-12.039c-1.885,0-3.402-1.51-3.402-3.386V17.135
					c0-1.875,1.518-3.385,3.402-3.385H181.26z"/>
				<polygon id="Fill-11" fill="#212146" points="207.273,13.75 207.273,16.563 192.564,16.563 192.564,21.719 204.395,21.719 
					204.395,24.531 192.564,24.531 192.564,32.5 189.686,32.5 189.686,13.75 				"/>
				<polygon id="Fill-13" fill="#212146" points="223.604,13.75 242.446,13.75 242.446,17.083 227.371,29.688 242.446,29.688 
					242.446,32.5 223.604,32.5 223.604,29.166 238.678,16.563 223.604,16.563 				"/>
				<polygon id="Fill-15" fill="#212146" points="249.983,16.031 252.496,13.75 252.496,32.5 249.983,32.5 				"/>
				<path id="Fill-17" fill="#212146" d="M274.218,29.688c0.313,0,0.575-0.26,0.575-0.573V17.135c0-0.313-0.262-0.572-0.575-0.572
					h-12.039c-0.313,0-0.575,0.259-0.575,0.572v11.979c0,0.313,0.262,0.573,0.575,0.573H274.218z M274.218,13.75
					c1.884,0,3.401,1.51,3.401,3.385v11.979c0,1.876-1.518,3.386-3.401,3.386h-12.039c-1.884,0-3.401-1.51-3.401-3.386V17.135
					c0-1.875,1.518-3.385,3.401-3.385H274.218z"/>
				<g id="Text" transform="translate(285.157025, 13.750000)">
					<polygon id="Fill-19" fill="#212146" points="15.556,0.216 18.284,0.216 18.284,18.318 15.05,18.318 2.822,3.836 2.822,18.318 
						0.092,18.318 0.092,0.216 3.326,0.216 15.556,14.697 					"/>
				</g>
				<g id="Icon">
					<polygon id="Fill-22" fill="#212146" points="51.504,32.143 45.066,38.571 32.19,38.571 45.066,25.715 					"/>
					<polygon id="Fill-24" fill="#212146" points="38.628,19.373 32.71,13.03 38.628,6.688 32.19,0.346 25.752,6.688 19.665,0 
						12.876,6.688 32.19,25.715 					"/>
					<polygon id="Fill-26" fill="#212146" points="6.438,12.857 25.752,32.143 12.876,45 0,45 12.876,32.143 0,19.286 					"/>
				</g>
			</g>
		</g>
	</g>
</g>
</svg>
